<svg xmlns="http://www.w3.org/2000/svg" viewBox="0 0 200 248.2"><defs><style>.cls-1{font-size:36px;font-family:OpenSans-Extrabold, Open Sans;font-weight:700;}</style></defs><title>Recurso 1</title><g id="Capa_2" data-name="Capa 2"><g id="Capa_1-2" data-name="Capa 1"><path d="M100,0,95.58,2.61,0,62.84,8.57,76.4V200H191.43V76.4L200,62.84,104.42,2.61Zm0,19.82,74.81,46.94V183.31H25.19V66.75ZM66.75,66.49a16.93,16.93,0,0,0-11.95,4.69,17.07,17.07,0,0,0-4.68,12V95.7a20.68,20.68,0,0,0-8.31,16.69v54.24H58.44v-8.34h83.12v8.34h16.62V112.39a20.68,20.68,0,0,0-8.31-16.69V83.18a16,16,0,0,0-16.62-16.69Zm0,16.69h66.49V92c-7.75,1.74-13.27,8.23-15.06,16.17H81.82C80,100.27,74.51,93.79,66.75,92Zm-4.16,25c1.8,0,4.16,2.36,4.16,4.17V124.9h66.49V112.39c0-1.81,2.35-4.17,4.16-4.17s4.16,2.36,4.16,4.17v29.2H58.44v-29.2C58.44,110.58,60.8,108.21,62.6,108.21Z"/><text class="cls-1" transform="translate(13.01 237.65)">INTERIOR</text></g></g></svg>